{
    "asset" : {
        "generator" : "Khronos glTF Blender I/O v3.4.50",
        "version" : "2.0"
    },
    "scene" : 0,
    "scenes" : [
        {
            "name" : "Scene",
            "nodes" : [
                0,
                1,
                2,
                3
            ]
        }
    ],
    "nodes" : [
        {
            "mesh" : 0,
            "name" : "decoration tour 5_PhysicalMaterial_0",
            "rotation" : [
                0.029055636376142502,
                0.7295824885368347,
                0.6832730770111084,
                0.0017661764286458492
            ],
            "scale" : [
                0.0015083322068676353,
                0.0015083316247910261,
                0.001508331741206348
            ],
            "translation" : [
                -0.1470670998096466,
                1.6534866094589233,
                0.10317740589380264
            ]
        },
        {
            "mesh" : 1,
            "name" : "decoration tour 6_PhysicalMaterial_0",
            "rotation" : [
                -0.43425020575523376,
                0.8987182378768921,
                0.026579471305012703,
                0.05500764027237892
            ],
            "scale" : [
                0.000986716477200389,
                0.0009867153130471706,
                0.000986716360785067
            ],
            "translation" : [
                -0.04405158758163452,
                1.6399627923965454,
                -0.10937777161598206
            ]
        },
        {
            "mesh" : 2,
            "name" : "decoration tour 3_PhysicalMaterial_0",
            "rotation" : [
                0,
                0.7071066498756409,
                -0.70710688829422,
                0
            ],
            "scale" : [
                0.0009867162443697453,
                0.003116613021120429,
                0.0009867162443697453
            ],
            "translation" : [
                -0.06803935766220093,
                1.457818627357483,
                0.00803956389427185
            ]
        },
        {
            "mesh" : 3,
            "name" : "decoration tour 2_PhysicalMaterial_0",
            "rotation" : [
                0,
                1,
                0,
                0
            ],
            "scale" : [
                0.0008945856825448573,
                0.001458792365156114,
                0.0008945856825448573
            ],
            "translation" : [
                0.02438122034072876,
                1.4341713190078735,
                -0.020547300577163696
            ]
        }
    ],
    "materials" : [
        {
            "doubleSided" : true,
            "name" : "albastru",
            "pbrMetallicRoughness" : {
                "baseColorFactor" : [
                    0.0056053451262414455,
                    0.019382329657673836,
                    0.05448027327656746,
                    1
                ],
                "metallicFactor" : 0,
                "roughnessFactor" : 0.5
            }
        },
        {
            "doubleSided" : true,
            "name" : "negru",
            "pbrMetallicRoughness" : {
                "baseColorFactor" : [
                    0.004776954650878906,
                    0.0030352710746228695,
                    0.002124689519405365,
                    1
                ],
                "metallicFactor" : 0,
                "roughnessFactor" : 0.5
            }
        }
    ],
    "meshes" : [
        {
            "name" : "005-0-5.001",
            "primitives" : [
                {
                    "attributes" : {
                        "POSITION" : 0,
                        "TEXCOORD_0" : 1,
                        "NORMAL" : 2
                    },
                    "indices" : 3,
                    "material" : 0
                },
                {
                    "attributes" : {
                        "POSITION" : 4,
                        "TEXCOORD_0" : 5,
                        "NORMAL" : 6
                    },
                    "indices" : 7,
                    "material" : 1
                }
            ]
        },
        {
            "name" : "006-0-6",
            "primitives" : [
                {
                    "attributes" : {
                        "POSITION" : 8,
                        "TEXCOORD_0" : 9,
                        "NORMAL" : 10
                    },
                    "indices" : 11,
                    "material" : 0
                },
                {
                    "attributes" : {
                        "POSITION" : 12,
                        "TEXCOORD_0" : 13,
                        "NORMAL" : 14
                    },
                    "indices" : 15,
                    "material" : 1
                }
            ]
        },
        {
            "name" : "007-0-7",
            "primitives" : [
                {
                    "attributes" : {
                        "POSITION" : 16,
                        "TEXCOORD_0" : 17,
                        "NORMAL" : 18
                    },
                    "indices" : 19,
                    "material" : 0
                },
                {
                    "attributes" : {
                        "POSITION" : 20,
                        "TEXCOORD_0" : 21,
                        "NORMAL" : 22
                    },
                    "indices" : 23,
                    "material" : 1
                }
            ]
        },
        {
            "name" : "021-0-21",
            "primitives" : [
                {
                    "attributes" : {
                        "POSITION" : 24,
                        "TEXCOORD_0" : 25,
                        "NORMAL" : 26
                    },
                    "indices" : 27,
                    "material" : 0
                },
                {
                    "attributes" : {
                        "POSITION" : 28,
                        "TEXCOORD_0" : 29,
                        "NORMAL" : 30
                    },
                    "indices" : 31,
                    "material" : 1
                }
            ]
        }
    ],
    "accessors" : [
        {
            "bufferView" : 0,
            "componentType" : 5126,
            "count" : 1948,
            "max" : [
                4.438833713531494,
                11.06563663482666,
                12.923600196838379
            ],
            "min" : [
                -79.71570587158203,
                -35.033599853515625,
                -198.0313262939453
            ],
            "type" : "VEC3"
        },
        {
            "bufferView" : 1,
            "componentType" : 5126,
            "count" : 1948,
            "type" : "VEC2"
        },
        {
            "bufferView" : 2,
            "componentType" : 5126,
            "count" : 1948,
            "type" : "VEC3"
        },
        {
            "bufferView" : 3,
            "componentType" : 5123,
            "count" : 5856,
            "type" : "SCALAR"
        },
        {
            "bufferView" : 4,
            "componentType" : 5126,
            "count" : 832,
            "max" : [
                0.8827889561653137,
                9.398484230041504,
                -7.06004524230957
            ],
            "min" : [
                -80.5509033203125,
                -18.529491424560547,
                -189.91297912597656
            ],
            "type" : "VEC3"
        },
        {
            "bufferView" : 5,
            "componentType" : 5126,
            "count" : 832,
            "type" : "VEC2"
        },
        {
            "bufferView" : 6,
            "componentType" : 5126,
            "count" : 832,
            "type" : "VEC3"
        },
        {
            "bufferView" : 7,
            "componentType" : 5123,
            "count" : 4464,
            "type" : "SCALAR"
        },
        {
            "bufferView" : 8,
            "componentType" : 5126,
            "count" : 10838,
            "max" : [
                25.785400390625,
                33.469482421875,
                6.057519912719727
            ],
            "min" : [
                -23.6658992767334,
                -39.296199798583984,
                -109.60802459716797
            ],
            "type" : "VEC3"
        },
        {
            "bufferView" : 9,
            "componentType" : 5126,
            "count" : 10838,
            "type" : "VEC2"
        },
        {
            "bufferView" : 10,
            "componentType" : 5126,
            "count" : 10838,
            "type" : "VEC3"
        },
        {
            "bufferView" : 11,
            "componentType" : 5123,
            "count" : 45132,
            "type" : "SCALAR"
        },
        {
            "bufferView" : 12,
            "componentType" : 5126,
            "count" : 805,
            "max" : [
                -0.14382052421569824,
                33.520591735839844,
                1.3238704204559326
            ],
            "min" : [
                -7.572004318237305,
                -1.986676812171936,
                -81.99683380126953
            ],
            "type" : "VEC3"
        },
        {
            "bufferView" : 13,
            "componentType" : 5126,
            "count" : 805,
            "type" : "VEC2"
        },
        {
            "bufferView" : 14,
            "componentType" : 5126,
            "count" : 805,
            "type" : "VEC3"
        },
        {
            "bufferView" : 15,
            "componentType" : 5123,
            "count" : 4488,
            "type" : "SCALAR"
        },
        {
            "bufferView" : 16,
            "componentType" : 5126,
            "count" : 4883,
            "max" : [
                18.241025924682617,
                14.723993301391602,
                22.708599090576172
            ],
            "min" : [
                -59.88140106201172,
                -0.16562600433826447,
                -77.5633316040039
            ],
            "type" : "VEC3"
        },
        {
            "bufferView" : 17,
            "componentType" : 5126,
            "count" : 4883,
            "type" : "VEC2"
        },
        {
            "bufferView" : 18,
            "componentType" : 5126,
            "count" : 4883,
            "type" : "VEC3"
        },
        {
            "bufferView" : 19,
            "componentType" : 5123,
            "count" : 20616,
            "type" : "SCALAR"
        },
        {
            "bufferView" : 20,
            "componentType" : 5126,
            "count" : 875,
            "max" : [
                17.866710662841797,
                14.649925231933594,
                10.819917678833008
            ],
            "min" : [
                -39.103271484375,
                0.5000832080841064,
                -70.47296905517578
            ],
            "type" : "VEC3"
        },
        {
            "bufferView" : 21,
            "componentType" : 5126,
            "count" : 875,
            "type" : "VEC2"
        },
        {
            "bufferView" : 22,
            "componentType" : 5126,
            "count" : 875,
            "type" : "VEC3"
        },
        {
            "bufferView" : 23,
            "componentType" : 5123,
            "count" : 4392,
            "type" : "SCALAR"
        },
        {
            "bufferView" : 24,
            "componentType" : 5126,
            "count" : 1085,
            "max" : [
                35.8657341003418,
                30.427223205566406,
                6.036139011383057
            ],
            "min" : [
                -117.72296905517578,
                -27.19339942932129,
                -32.53042984008789
            ],
            "type" : "VEC3"
        },
        {
            "bufferView" : 25,
            "componentType" : 5126,
            "count" : 1085,
            "type" : "VEC2"
        },
        {
            "bufferView" : 26,
            "componentType" : 5126,
            "count" : 1085,
            "type" : "VEC3"
        },
        {
            "bufferView" : 27,
            "componentType" : 5123,
            "count" : 4536,
            "type" : "SCALAR"
        },
        {
            "bufferView" : 28,
            "componentType" : 5126,
            "count" : 9495,
            "max" : [
                35.09138107299805,
                35.33946990966797,
                30.573427200317383
            ],
            "min" : [
                -80.6900634765625,
                -11.855508804321289,
                -57.110660552978516
            ],
            "type" : "VEC3"
        },
        {
            "bufferView" : 29,
            "componentType" : 5126,
            "count" : 9495,
            "type" : "VEC2"
        },
        {
            "bufferView" : 30,
            "componentType" : 5126,
            "count" : 9495,
            "type" : "VEC3"
        },
        {
            "bufferView" : 31,
            "componentType" : 5123,
            "count" : 44052,
            "type" : "SCALAR"
        }
    ],
    "bufferViews" : [
        {
            "buffer" : 0,
            "byteLength" : 23376,
            "byteOffset" : 0,
            "target" : 34962
        },
        {
            "buffer" : 0,
            "byteLength" : 15584,
            "byteOffset" : 23376,
            "target" : 34962
        },
        {
            "buffer" : 0,
            "byteLength" : 23376,
            "byteOffset" : 38960,
            "target" : 34962
        },
        {
            "buffer" : 0,
            "byteLength" : 11712,
            "byteOffset" : 62336,
            "target" : 34963
        },
        {
            "buffer" : 0,
            "byteLength" : 9984,
            "byteOffset" : 74048,
            "target" : 34962
        },
        {
            "buffer" : 0,
            "byteLength" : 6656,
            "byteOffset" : 84032,
            "target" : 34962
        },
        {
            "buffer" : 0,
            "byteLength" : 9984,
            "byteOffset" : 90688,
            "target" : 34962
        },
        {
            "buffer" : 0,
            "byteLength" : 8928,
            "byteOffset" : 100672,
            "target" : 34963
        },
        {
            "buffer" : 0,
            "byteLength" : 130056,
            "byteOffset" : 109600,
            "target" : 34962
        },
        {
            "buffer" : 0,
            "byteLength" : 86704,
            "byteOffset" : 239656,
            "target" : 34962
        },
        {
            "buffer" : 0,
            "byteLength" : 130056,
            "byteOffset" : 326360,
            "target" : 34962
        },
        {
            "buffer" : 0,
            "byteLength" : 90264,
            "byteOffset" : 456416,
            "target" : 34963
        },
        {
            "buffer" : 0,
            "byteLength" : 9660,
            "byteOffset" : 546680,
            "target" : 34962
        },
        {
            "buffer" : 0,
            "byteLength" : 6440,
            "byteOffset" : 556340,
            "target" : 34962
        },
        {
            "buffer" : 0,
            "byteLength" : 9660,
            "byteOffset" : 562780,
            "target" : 34962
        },
        {
            "buffer" : 0,
            "byteLength" : 8976,
            "byteOffset" : 572440,
            "target" : 34963
        },
        {
            "buffer" : 0,
            "byteLength" : 58596,
            "byteOffset" : 581416,
            "target" : 34962
        },
        {
            "buffer" : 0,
            "byteLength" : 39064,
            "byteOffset" : 640012,
            "target" : 34962
        },
        {
            "buffer" : 0,
            "byteLength" : 58596,
            "byteOffset" : 679076,
            "target" : 34962
        },
        {
            "buffer" : 0,
            "byteLength" : 41232,
            "byteOffset" : 737672,
            "target" : 34963
        },
        {
            "buffer" : 0,
            "byteLength" : 10500,
            "byteOffset" : 778904,
            "target" : 34962
        },
        {
            "buffer" : 0,
            "byteLength" : 7000,
            "byteOffset" : 789404,
            "target" : 34962
        },
        {
            "buffer" : 0,
            "byteLength" : 10500,
            "byteOffset" : 796404,
            "target" : 34962
        },
        {
            "buffer" : 0,
            "byteLength" : 8784,
            "byteOffset" : 806904,
            "target" : 34963
        },
        {
            "buffer" : 0,
            "byteLength" : 13020,
            "byteOffset" : 815688,
            "target" : 34962
        },
        {
            "buffer" : 0,
            "byteLength" : 8680,
            "byteOffset" : 828708,
            "target" : 34962
        },
        {
            "buffer" : 0,
            "byteLength" : 13020,
            "byteOffset" : 837388,
            "target" : 34962
        },
        {
            "buffer" : 0,
            "byteLength" : 9072,
            "byteOffset" : 850408,
            "target" : 34963
        },
        {
            "buffer" : 0,
            "byteLength" : 113940,
            "byteOffset" : 859480,
            "target" : 34962
        },
        {
            "buffer" : 0,
            "byteLength" : 75960,
            "byteOffset" : 973420,
            "target" : 34962
        },
        {
            "buffer" : 0,
            "byteLength" : 113940,
            "byteOffset" : 1049380,
            "target" : 34962
        },
        {
            "buffer" : 0,
            "byteLength" : 88104,
            "byteOffset" : 1163320,
            "target" : 34963
        }
    ],
    "buffers" : [
        {
            "byteLength" : 1251424,
            "uri" : "data:application/octet-stream;base64,"
        }
    ]
}
