{
    "asset" : {
        "generator" : "Khronos glTF Blender I/O v3.4.50",
        "version" : "2.0"
    },
    "scene" : 0,
    "scenes" : [
        {
            "name" : "Scene",
            "nodes" : [
                0,
                1
            ]
        }
    ],
    "nodes" : [
        {
            "mesh" : 0,
            "name" : "axe central 3_PhysicalMaterial_0",
            "rotation" : [
                -0.43506309390068054,
                0.9003999829292297,
                0,
                2.4086249439392304e-08
            ],
            "scale" : [
                0.0007105591357685626,
                0.0007105591357685626,
                0.000710559543222189
            ],
            "translation" : [
                -0.07587093114852905,
                1.6482263803482056,
                0.024765104055404663
            ]
        },
        {
            "mesh" : 1,
            "name" : "Retopo_axe central 1_PhysicalMaterial_0.001",
            "rotation" : [
                0.4350626766681671,
                -0.9004001617431641,
                0,
                5.317943774230116e-08
            ],
            "scale" : [
                0.0005241548060439527,
                0.0005241548060439527,
                0.0005241548060439527
            ],
            "translation" : [
                0.29207897186279297,
                1.3563686609268188,
                0.024765104055404663
            ]
        }
    ],
    "materials" : [
        {
            "doubleSided" : true,
            "name" : "axa1",
            "pbrMetallicRoughness" : {
                "baseColorTexture" : {
                    "index" : 0
                },
                "metallicFactor" : 0,
                "roughnessFactor" : 0.5
            }
        },
        {
            "doubleSided" : true,
            "name" : "albastru.006",
            "pbrMetallicRoughness" : {
                "baseColorFactor" : [
                    0.0056053451262414455,
                    0.019382329657673836,
                    0.05448027327656746,
                    1
                ],
                "metallicFactor" : 0,
                "roughnessFactor" : 0.5
            }
        },
        {
            "doubleSided" : true,
            "name" : "negru.003",
            "pbrMetallicRoughness" : {
                "baseColorFactor" : [
                    0.004776954650878906,
                    0.0030352710746228695,
                    0.002124689519405365,
                    1
                ],
                "metallicFactor" : 0,
                "roughnessFactor" : 0.5
            }
        }
    ],
    "meshes" : [
        {
            "name" : "003-0-3",
            "primitives" : [
                {
                    "attributes" : {
                        "POSITION" : 0,
                        "TEXCOORD_0" : 1,
                        "NORMAL" : 2
                    },
                    "indices" : 3,
                    "material" : 0
                }
            ]
        },
        {
            "name" : "mesh.015",
            "primitives" : [
                {
                    "attributes" : {
                        "POSITION" : 4,
                        "NORMAL" : 5
                    },
                    "indices" : 6,
                    "material" : 1
                },
                {
                    "attributes" : {
                        "POSITION" : 7,
                        "NORMAL" : 8
                    },
                    "indices" : 9,
                    "material" : 2
                }
            ]
        }
    ],
    "textures" : [
        {
            "sampler" : 0,
            "source" : 0
        }
    ],
    "images" : [
        {
            "bufferView" : 4,
            "mimeType" : "image/png",
            "name" : "axe_central_3_BaseColor"
        }
    ],
    "accessors" : [
        {
            "bufferView" : 0,
            "componentType" : 5126,
            "count" : 19313,
            "max" : [
                318.9681701660156,
                406.0248718261719,
                318.9849853515625
            ],
            "min" : [
                -318.96600341796875,
                4.042600154876709,
                -318.9851989746094
            ],
            "type" : "VEC3"
        },
        {
            "bufferView" : 1,
            "componentType" : 5126,
            "count" : 19313,
            "type" : "VEC2"
        },
        {
            "bufferView" : 2,
            "componentType" : 5126,
            "count" : 19313,
            "type" : "VEC3"
        },
        {
            "bufferView" : 3,
            "componentType" : 5123,
            "count" : 71352,
            "type" : "SCALAR"
        },
        {
            "bufferView" : 5,
            "componentType" : 5126,
            "count" : 29246,
            "max" : [
                97.4500961303711,
                1006.216796875,
                97.58867645263672
            ],
            "min" : [
                -97.4621810913086,
                25.362550735473633,
                -96.20774841308594
            ],
            "type" : "VEC3"
        },
        {
            "bufferView" : 6,
            "componentType" : 5126,
            "count" : 29246,
            "type" : "VEC3"
        },
        {
            "bufferView" : 7,
            "componentType" : 5123,
            "count" : 108975,
            "type" : "SCALAR"
        },
        {
            "bufferView" : 8,
            "componentType" : 5126,
            "count" : 5063,
            "max" : [
                99.77993774414062,
                447.22216796875,
                99.78915405273438
            ],
            "min" : [
                -99.56764221191406,
                160.2488250732422,
                -99.78585052490234
            ],
            "type" : "VEC3"
        },
        {
            "bufferView" : 9,
            "componentType" : 5126,
            "count" : 5063,
            "type" : "VEC3"
        },
        {
            "bufferView" : 10,
            "componentType" : 5123,
            "count" : 22812,
            "type" : "SCALAR"
        }
    ],
    "bufferViews" : [
        {
            "buffer" : 0,
            "byteLength" : 231756,
            "byteOffset" : 0,
            "target" : 34962
        },
        {
            "buffer" : 0,
            "byteLength" : 154504,
            "byteOffset" : 231756,
            "target" : 34962
        },
        {
            "buffer" : 0,
            "byteLength" : 231756,
            "byteOffset" : 386260,
            "target" : 34962
        },
        {
            "buffer" : 0,
            "byteLength" : 142704,
            "byteOffset" : 618016,
            "target" : 34963
        },
        {
            "buffer" : 0,
            "byteLength" : 447515,
            "byteOffset" : 760720
        },
        {
            "buffer" : 0,
            "byteLength" : 350952,
            "byteOffset" : 1208236,
            "target" : 34962
        },
        {
            "buffer" : 0,
            "byteLength" : 350952,
            "byteOffset" : 1559188,
            "target" : 34962
        },
        {
            "buffer" : 0,
            "byteLength" : 217950,
            "byteOffset" : 1910140,
            "target" : 34963
        },
        {
            "buffer" : 0,
            "byteLength" : 60756,
            "byteOffset" : 2128092,
            "target" : 34962
        },
        {
            "buffer" : 0,
            "byteLength" : 60756,
            "byteOffset" : 2188848,
            "target" : 34962
        },
        {
            "buffer" : 0,
            "byteLength" : 45624,
            "byteOffset" : 2249604,
            "target" : 34963
        }
    ],
    "samplers" : [
        {
            "magFilter" : 9729,
            "minFilter" : 9987
        }
    ],
    "buffers" : [
        {
            "byteLength" : 2295228,
            "uri" : "data:application/octet-stream;base64,"
        }
    ]
}
