{
    "asset" : {
        "generator" : "Khronos glTF Blender I/O v3.4.50",
        "version" : "2.0"
    },
    "extensionsUsed" : [
        "KHR_materials_transmission",
        "KHR_materials_specular",
        "KHR_materials_ior"
    ],
    "scene" : 0,
    "scenes" : [
        {
            "name" : "Scene",
            "nodes" : [
                0
            ]
        }
    ],
    "nodes" : [
        {
            "mesh" : 0,
            "name" : "Cone",
            "rotation" : [
                -0.8268892765045166,
                -0.19869151711463928,
                -0.3426971435546875,
                0.3991672992706299
            ],
            "scale" : [
                0.01089003961533308,
                0.01089003961533308,
                0.01089004147797823
            ],
            "translation" : [
                -0.9544021487236023,
                1.6269696950912476,
                -0.20071536302566528
            ]
        }
    ],
    "materials" : [
        {
            "doubleSided" : true,
            "emissiveFactor" : [
                0.10000000149011612,
                3.344501069292441e-05,
                0
            ],
            "extensions" : {
                "KHR_materials_transmission" : {
                    "transmissionFactor" : 1
                },
                "KHR_materials_specular" : {
                    "specularColorFactor" : [
                        1,
                        1,
                        1
                    ]
                },
                "KHR_materials_ior" : {
                    "ior" : 1.4500000476837158
                }
            },
            "name" : "ray-red",
            "pbrMetallicRoughness" : {
                "metallicFactor" : 0,
                "roughnessFactor" : 0
            }
        },
        {
            "doubleSided" : true,
            "emissiveFactor" : [
                0.00023887995986461574,
                0,
                0.10000000149011612
            ],
            "extensions" : {
                "KHR_materials_transmission" : {
                    "transmissionFactor" : 1
                },
                "KHR_materials_specular" : {
                    "specularColorFactor" : [
                        1,
                        1,
                        1
                    ]
                },
                "KHR_materials_ior" : {
                    "ior" : 1.4500000476837158
                }
            },
            "name" : "ray-blue",
            "pbrMetallicRoughness" : {
                "metallicFactor" : 0,
                "roughnessFactor" : 0
            }
        },
        {
            "doubleSided" : true,
            "emissiveFactor" : [
                0.0018018810347002895,
                0.10000000149011612,
                0
            ],
            "extensions" : {
                "KHR_materials_transmission" : {
                    "transmissionFactor" : 1
                },
                "KHR_materials_specular" : {
                    "specularColorFactor" : [
                        1,
                        1,
                        1
                    ]
                },
                "KHR_materials_ior" : {
                    "ior" : 1.4500000476837158
                }
            },
            "name" : "ray-green",
            "pbrMetallicRoughness" : {
                "metallicFactor" : 0,
                "roughnessFactor" : 0
            }
        }
    ],
    "meshes" : [
        {
            "name" : "Cone.001",
            "primitives" : [
                {
                    "attributes" : {
                        "POSITION" : 0,
                        "TEXCOORD_0" : 1,
                        "NORMAL" : 2
                    },
                    "indices" : 3,
                    "material" : 0
                },
                {
                    "attributes" : {
                        "POSITION" : 4,
                        "TEXCOORD_0" : 5,
                        "NORMAL" : 6
                    },
                    "indices" : 7,
                    "material" : 1
                },
                {
                    "attributes" : {
                        "POSITION" : 8,
                        "TEXCOORD_0" : 9,
                        "NORMAL" : 10
                    },
                    "indices" : 11,
                    "material" : 2
                }
            ]
        }
    ],
    "accessors" : [
        {
            "bufferView" : 0,
            "componentType" : 5126,
            "count" : 710,
            "max" : [
                155.52455139160156,
                1.0534086227416992,
                62.730865478515625
            ],
            "min" : [
                -0.9510565400123596,
                -135.67959594726562,
                -57.00564956665039
            ],
            "type" : "VEC3"
        },
        {
            "bufferView" : 1,
            "componentType" : 5126,
            "count" : 710,
            "type" : "VEC2"
        },
        {
            "bufferView" : 2,
            "componentType" : 5126,
            "count" : 710,
            "type" : "VEC3"
        },
        {
            "bufferView" : 3,
            "componentType" : 5123,
            "count" : 1044,
            "type" : "SCALAR"
        },
        {
            "bufferView" : 4,
            "componentType" : 5126,
            "count" : 720,
            "max" : [
                151.12527465820312,
                5.6376495361328125,
                58.459598541259766
            ],
            "min" : [
                2.2000465393066406,
                -39.24891662597656,
                -54.599693298339844
            ],
            "type" : "VEC3"
        },
        {
            "bufferView" : 5,
            "componentType" : 5126,
            "count" : 720,
            "type" : "VEC2"
        },
        {
            "bufferView" : 6,
            "componentType" : 5126,
            "count" : 720,
            "type" : "VEC3"
        },
        {
            "bufferView" : 7,
            "componentType" : 5123,
            "count" : 1044,
            "type" : "SCALAR"
        },
        {
            "bufferView" : 8,
            "componentType" : 5126,
            "count" : 120,
            "max" : [
                74.953125,
                -15.771202087402344,
                7.308529853820801
            ],
            "min" : [
                72.66433715820312,
                -44.89695358276367,
                4.422452926635742
            ],
            "type" : "VEC3"
        },
        {
            "bufferView" : 9,
            "componentType" : 5126,
            "count" : 120,
            "type" : "VEC2"
        },
        {
            "bufferView" : 10,
            "componentType" : 5126,
            "count" : 120,
            "type" : "VEC3"
        },
        {
            "bufferView" : 11,
            "componentType" : 5123,
            "count" : 174,
            "type" : "SCALAR"
        }
    ],
    "bufferViews" : [
        {
            "buffer" : 0,
            "byteLength" : 8520,
            "byteOffset" : 0,
            "target" : 34962
        },
        {
            "buffer" : 0,
            "byteLength" : 5680,
            "byteOffset" : 8520,
            "target" : 34962
        },
        {
            "buffer" : 0,
            "byteLength" : 8520,
            "byteOffset" : 14200,
            "target" : 34962
        },
        {
            "buffer" : 0,
            "byteLength" : 2088,
            "byteOffset" : 22720,
            "target" : 34963
        },
        {
            "buffer" : 0,
            "byteLength" : 8640,
            "byteOffset" : 24808,
            "target" : 34962
        },
        {
            "buffer" : 0,
            "byteLength" : 5760,
            "byteOffset" : 33448,
            "target" : 34962
        },
        {
            "buffer" : 0,
            "byteLength" : 8640,
            "byteOffset" : 39208,
            "target" : 34962
        },
        {
            "buffer" : 0,
            "byteLength" : 2088,
            "byteOffset" : 47848,
            "target" : 34963
        },
        {
            "buffer" : 0,
            "byteLength" : 1440,
            "byteOffset" : 49936,
            "target" : 34962
        },
        {
            "buffer" : 0,
            "byteLength" : 960,
            "byteOffset" : 51376,
            "target" : 34962
        },
        {
            "buffer" : 0,
            "byteLength" : 1440,
            "byteOffset" : 52336,
            "target" : 34962
        },
        {
            "buffer" : 0,
            "byteLength" : 348,
            "byteOffset" : 53776,
            "target" : 34963
        }
    ],
    "buffers" : [
        {
            "byteLength" : 54124,
            "uri" : "data:application/octet-stream;base64,"
        }
    ]
}
