<?xml version="1.0" encoding="UTF-8" standalone="no"?>
<svg
   viewBox="0 0 533.33331 533.33331"
   height="533.33331"
   width="533.33331"
   xml:space="preserve"
   id="svg2"
   version="1.1"
   sodipodi:docname="globe3.svg"
   inkscape:version="1.2.2 (732a01da63, 2022-12-09)"
   xmlns:inkscape="http://www.inkscape.org/namespaces/inkscape"
   xmlns:sodipodi="http://sodipodi.sourceforge.net/DTD/sodipodi-0.dtd"
   xmlns="http://www.w3.org/2000/svg"
   xmlns:svg="http://www.w3.org/2000/svg"
   xmlns:rdf="http://www.w3.org/1999/02/22-rdf-syntax-ns#"
   xmlns:cc="http://creativecommons.org/ns#"
   xmlns:dc="http://purl.org/dc/elements/1.1/"><sodipodi:namedview
     id="namedview140"
     pagecolor="#ffffff"
     bordercolor="#000000"
     borderopacity="0.25"
     inkscape:showpageshadow="2"
     inkscape:pageopacity="0.0"
     inkscape:pagecheckerboard="0"
     inkscape:deskcolor="#d1d1d1"
     showgrid="false"
     inkscape:zoom="1.4248202"
     inkscape:cx="129.49002"
     inkscape:cy="266.70032"
     inkscape:window-width="1920"
     inkscape:window-height="1009"
     inkscape:window-x="-8"
     inkscape:window-y="-8"
     inkscape:window-maximized="1"
     inkscape:current-layer="g10" /><metadata
     id="metadata8"><rdf:RDF><cc:Work
         rdf:about=""><dc:format>image/svg+xml</dc:format><dc:type
           rdf:resource="http://purl.org/dc/dcmitype/StillImage" /></cc:Work></rdf:RDF></metadata><defs
     id="defs6" /><g
     transform="matrix(1.3333333,0,0,-1.3333333,0,533.33333)"
     id="g10"><path
       id="rect1082"
       style="fill:#e6e6e6;stroke-width:1.10703"
       d="M 199.99953,395.26936 C 92.156533,395.26936 4.7306417,307.84348 4.7306417,200.0005 4.7306417,92.154899 92.156533,4.7316163 199.99953,4.7316163 c 107.84557,0 195.26886,87.4232827 195.26886,195.2688837 0,107.84298 -87.42329,195.26886 -195.26886,195.26886 z m 0,-20.03603 c 17.03392,0 33.50556,-2.45297 49.08799,-7.00794 0.23953,-0.70818 0.33034,-1.47187 0.17544,-2.32454 -0.14466,-0.79751 -0.50269,-1.57788 -1.02592,-2.33598 -0.52324,-0.7581 -1.21188,-1.49491 -2.02135,-2.20249 -4.85682,-4.24544 -14.03527,-7.48163 -17.56085,-8.50678 -12.29282,-3.50313 -26.33813,-2.53964 -41.15901,-8.44195 -5.01938,-2.01518 -8.53561,-3.88225 -11.02202,-6.28903 -0.82879,-0.80227 -1.54349,-1.6652 -2.16053,-2.61249 -2.46822,-3.78918 -3.38195,-8.9421 -3.85581,-17.08221 -1.04664,-17.99466 2.98416,-31.35375 22.87162,-26.84565 9.71007,3.15162 17.75756,7.81306 21.29843,14.95599 1.93966,3.91838 0.43768,10.95986 4.38211,14.09979 2.23386,1.78735 12.1534,2.10008 14.4068,1.15368 3.22388,-1.35516 3.43854,-3.04005 4.55754,-5.14488 0.37301,-0.7016 0.84635,-1.44993 1.56559,-2.24826 5.25761,-5.83755 10.34824,-5.56187 13.22068,-10.06856 0.47875,-0.7511 0.8954,-1.6368 1.24142,-2.704 0.34602,-1.06722 0.62186,-2.31629 0.81617,-3.8005 1.19113,-9.10473 -3.37793,-23.86521 -7.929,-31.4833 -0.80726,-1.35011 -1.71036,-2.55168 -2.68684,-3.6365 -0.97649,-1.08482 -2.02674,-2.05306 -3.13308,-2.93667 -6.63803,-5.30159 -15.25995,-7.55835 -21.61497,-13.68979 -9.24271,-8.91857 -5.21404,-17.99308 -8.41906,-29.24837 -3.67756,-12.91116 -16.0379,-8.28254 -21.70459,-17.00975 -2.58976,-3.98917 -1.42319,-9.1883 -2.60486,-13.56012 -0.23633,-0.87438 -0.56813,-1.71575 -1.04119,-2.50761 -0.94606,-1.58371 -2.4619,-2.9713 -4.94083,-4.02934 -5.12905,-2.18766 -10.93697,-2.60606 -16.01624,-1.25284 -1.26982,0.3383 -2.49502,0.78827 -3.65175,1.34819 -1.15674,0.55992 -2.24592,1.23017 -3.24559,2.0118 -1.99934,1.5633 -3.64107,3.56923 -4.74824,6.02018 -2.4708,5.47141 -4.02516,12.06509 -7.1052,17.57037 -4.14748,7.40459 -7.25491,8.77529 -16.02768,12.5609 -9.49135,4.08632 -24.38398,4.91229 -28.09278,-10.84847 -0.38533,-1.67429 -0.64986,-3.40637 -0.799,-5.16396 -0.44743,-5.27278 0.14506,-10.76881 1.63996,-15.57193 0.49829,-1.60104 1.09685,-3.12513 1.7906,-4.53847 2.08123,-4.24006 5.01959,-7.48256 8.6765,-8.81381 9.17111,-3.34038 22.75509,7.32613 24.66223,-5.43663 2.99542,-17.41797 -32.38955,-32.35026 -17.01929,-44.69254 10.04853,-8.06851 23.69737,-9.34041 39.15484,-12.3111 0.11326,0.0417 0.2325,0.0614 0.34706,0.0992 4.04598,-0.73422 8.44744,-1.32407 13.09483,-1.70289 13.34598,0.37621 21.43458,3.6173 25.0093,7.28444 1.9592,0.0806 3.95197,-0.0101 6.0049,-0.37947 12.2082,-2.19613 19.43552,-8.37588 23.98526,-19.141692 5.39072,-12.760156 10.19783,-17.981972 24.83386,-19.486844 3.83605,-0.393792 8.668,-0.86659 13.54868,-1.72386 2.44036,-0.428628 4.89227,-0.953106 7.23868,-1.613259 5.86604,-1.650373 11.06881,-4.144727 13.75847,-8.085348 0.53792,-0.788125 0.9765,-1.633283 1.29859,-2.541929 0.32211,-0.908647 0.52782,-1.880693 0.6045,-2.919498 0.0767,-1.038806 0.0229,-2.145163 -0.17543,-3.323767 -0.19833,-1.178603 -0.54016,-2.428599 -1.04309,-3.756637 -0.50294,-1.328038 -1.16704,-2.734818 -2.00418,-4.221927 -0.45172,-0.802424 -0.95929,-1.563279 -1.49693,-2.301655 -22.03412,-12.269349 -46.97229,-19.931277 -73.50234,-21.655014 -3.79,-0.246247 -7.61323,-0.371849 -11.4644,-0.371849 -10.4495,0 -20.68635,0.924879 -30.63853,2.686854 -4.30894,4.605606 -7.23862,10.742666 -9.51936,17.394948 -1.7366,5.073991 -0.69039,11.159989 -2.23301,16.267956 -1.96832,6.517548 -9.00546,10.100077 -12.27297,15.562398 -3.82986,6.402202 -3.5295,13.399805 -0.69029,19.507816 -4.07591,0.156215 -8.13401,0.347396 -12.02505,0.360415 -13.56597,-0.715987 -23.91818,3.122582 -32.5855,8.560172 -7.010147,4.40136 -8.481108,9.03848 -19.177923,10.70737 -2.954418,0.46019 -5.024191,0.84394 -6.758126,1.62469 -0.866981,0.39038 -1.65088,0.87986 -2.417989,1.52745 -0.767107,0.6476 -1.516639,1.4523 -2.320719,2.47518 -2.513498,3.1959 -1.488937,3.83706 -5.171574,7.62008 -3.164915,3.25057 -6.001904,4.44606 -8.4839,8.85002 -1.858176,3.29873 -2.322739,7.80268 -3.945422,11.86297 -4.09244,10.55361 -11.277925,15.05205 -17.808751,21.66646 -3.170512,2.13752 -5.69215,4.24288 -7.797406,6.49497 -0.911253,7.23016 -1.384427,14.59532 -1.384427,22.06501 0,3.01945 0.07715,6.02015 0.228833,9.00258 4.702197,92.45542 81.398724,166.23025 175.002114,166.23025 z m 119.42102,-47.12005 c 18.79525,-17.53383 33.74632,-39.13669 43.42253,-63.39946 -0.96494,-0.58891 -1.89278,-0.94668 -2.7822,-1.14988 -0.88943,-0.20319 -1.74179,-0.25147 -2.55338,-0.21548 -4.05791,0.17991 -7.12756,2.43472 -9.06549,-2.39509 -0.3876,-0.96597 -0.7301,-2.21557 -1.02593,-3.82147 -0.99831,-5.42522 -0.21227,-9.26915 -2.07856,-11.53498 -0.37324,-0.45317 -0.85116,-0.84394 -1.47214,-1.17085 -1.24196,-0.65383 -3.0504,-1.05422 -5.70932,-1.20327 -8.01773,-0.44911 -16.32278,2.33378 -20.68248,9.26193 -1.79128,2.847 -2.86933,6.8054 -4.95611,9.86069 -1.41633,2.07244 -2.37898,4.08923 -3.68987,6.38819 -5.26705,9.2349 -4.95405,12.01983 0.78946,20.62337 4.12276,6.17959 8.92364,12.74848 10.01324,20.06845 0.16111,1.07691 0.15965,2.46611 0.0858,4.02361 -0.22152,4.67253 -1.10692,10.85941 -0.29557,14.66424 z m 52.81223,-95.79045 c 1.96179,-10.47942 2.99958,-21.28186 2.99958,-32.32233 0,-3.94687 -0.13069,-7.86411 -0.38901,-11.74666 -0.25834,-3.88254 -0.64343,-7.7307 -1.15179,-11.54069 -0.50834,-3.80999 -1.13967,-7.58267 -1.88976,-11.31186 -0.75007,-3.7292 -1.61944,-7.41616 -2.60295,-11.05634 -3.93402,-14.5607 -9.70144,-28.37488 -17.03836,-41.18191 -7.4918,-2.33019 -10.67073,4.03303 -14.21418,9.65284 -7.9045,12.53235 -19.84041,21.08456 -18.31601,37.99354 1.82902,20.24026 16.28809,32.61973 31.83798,44.20438 8.57231,6.38919 9.94133,9.74489 13.01094,19.51352 1.0141,3.22976 4.25042,6.90768 7.75356,7.79551 z" /></g></svg>
