<?xml version="1.0" encoding="UTF-8" standalone="no"?>
<svg
   viewBox="0 0 533.33331 533.33331"
   height="533.33331"
   width="533.33331"
   xml:space="preserve"
   id="svg2"
   version="1.1"
   sodipodi:docname="obs5.svg"
   inkscape:version="1.2.2 (732a01da63, 2022-12-09)"
   xmlns:inkscape="http://www.inkscape.org/namespaces/inkscape"
   xmlns:sodipodi="http://sodipodi.sourceforge.net/DTD/sodipodi-0.dtd"
   xmlns="http://www.w3.org/2000/svg"
   xmlns:svg="http://www.w3.org/2000/svg"
   xmlns:rdf="http://www.w3.org/1999/02/22-rdf-syntax-ns#"
   xmlns:cc="http://creativecommons.org/ns#"
   xmlns:dc="http://purl.org/dc/elements/1.1/"><sodipodi:namedview
     id="namedview140"
     pagecolor="#ffffff"
     bordercolor="#000000"
     borderopacity="0.25"
     inkscape:showpageshadow="2"
     inkscape:pageopacity="0.0"
     inkscape:pagecheckerboard="0"
     inkscape:deskcolor="#d1d1d1"
     showgrid="false"
     inkscape:zoom="1.4248202"
     inkscape:cx="236.87199"
     inkscape:cy="261.08557"
     inkscape:window-width="1920"
     inkscape:window-height="1009"
     inkscape:window-x="-8"
     inkscape:window-y="-8"
     inkscape:window-maximized="1"
     inkscape:current-layer="g10" /><metadata
     id="metadata8"><rdf:RDF><cc:Work
         rdf:about=""><dc:format>image/svg+xml</dc:format><dc:type
           rdf:resource="http://purl.org/dc/dcmitype/StillImage" /></cc:Work></rdf:RDF></metadata><defs
     id="defs6"><inkscape:perspective
       sodipodi:type="inkscape:persp3d"
       inkscape:vp_x="0 : 266.66665 : 1"
       inkscape:vp_y="0 : 1000 : 0"
       inkscape:vp_z="533.33331 : 266.66665 : 1"
       inkscape:persp3d-origin="266.66665 : 177.77777 : 1"
       id="perspective5670" /></defs><g
     transform="matrix(1.3333333,0,0,-1.3333333,0,533.33333)"
     id="g10"><path
       style="fill:#000000;stroke-width:0.842005"
       d="m 96.980756,8.0786992 c -4.72394,3.7158508 -5.948347,9.2805708 -3.077829,13.9883578 2.955674,4.847482 4.903687,5.303411 22.659513,5.303411 h 15.97299 l 0.46906,2.315515 c 1.46277,7.221254 9.76883,56.667488 9.76883,58.154216 0,1.375575 -0.80332,1.988173 -3.57855,2.729002 -11.62599,3.103446 -34.2682,13.554529 -47.751353,22.040889 -15.767143,9.92388 -33.792034,25.71887 -45.948144,40.26374 -12.856878,15.38339 -26.780133,39.85927 -33.182116,58.33136 -2.8734894,8.29106 -3.187515,12.09688 -1.299409,15.74807 2.641344,5.1078 1.779946,5.02446 51.941041,5.02446 h 45.723881 l 40.20247,40.20902 40.20245,40.20901 v 9.39418 9.39419 l -3.8569,1.8671 c -5.2618,2.54719 -11.48974,8.99006 -14.37664,14.87277 -2.17074,4.42329 -2.39558,5.71133 -2.39558,13.72253 0,8.01124 0.22484,9.29924 2.39558,13.72254 3.05675,6.22885 9.22825,12.40033 15.45707,15.45711 4.4233,2.17071 5.71133,2.39554 13.72253,2.39554 8.01123,0 9.29926,-0.22483 13.72255,-2.39554 6.22884,-3.05678 12.40032,-9.22826 15.4571,-15.45711 2.17071,-4.4233 2.39555,-5.7113 2.39555,-13.72254 0,-8.0112 -0.22484,-9.29924 -2.39555,-13.72253 -2.88691,-5.88271 -9.11487,-12.32558 -14.37668,-14.87277 l -3.85687,-1.8671 v -9.40072 -9.40076 l 40.20898,-40.20246 40.20901,-40.20246 h 45.71733 c 50.15392,0 49.29319,0.0832 51.93451,-5.02446 1.8881,-3.65119 1.57407,-7.45701 -1.29941,-15.74807 -6.40287,-18.47458 -20.32942,-42.95529 -33.18349,-58.33136 -12.8928,-15.42236 -32.25404,-32.14353 -48.56665,-41.94414 -13.38794,-8.04345 -32.02026,-16.518486 -43.92319,-19.978765 -3.83525,-1.114939 -4.78683,-1.738736 -4.78683,-3.138013 0,-1.467365 8.32113,-50.980125 9.76882,-58.126929 l 0.46905,-2.315515 h 15.97302 c 17.75579,0 19.70383,-0.455929 22.6595,-5.303411 2.87051,-4.707787 1.64612,-10.272507 -3.07784,-13.9883578 L 300.84318,6.3203385 H 200.02965 99.216139 Z M 189.08359,55.380275 c 0,31.341162 0.14005,32.172287 5.94595,35.286027 3.62938,1.946454 6.37087,1.946454 10.00023,0 5.8059,-3.11374 5.94598,-3.944865 5.94598,-35.286027 V 27.370468 h 17.26108 c 9.49363,0 17.2611,0.223418 17.2611,0.496489 0,0.273063 -4.19028,24.806989 -9.31171,54.519837 -6.80008,39.451876 -9.83228,55.169246 -11.2417,58.271796 -2.81278,6.19168 -6.64186,10.09022 -12.97063,13.20588 -4.81931,2.37253 -6.47303,2.7538 -11.94424,2.7538 -11.076,0 -20.36886,-5.95272 -24.91486,-15.95968 -1.4094,-3.10255 -4.44159,-18.81992 -11.2417,-58.271796 -5.12142,-29.712848 -9.31172,-54.246774 -9.31172,-54.519837 0,-0.273071 7.76751,-0.496489 17.26112,-0.496489 h 17.2611 z m 6.22085,59.496185 c -7.20855,3.09812 -7.82335,14.41046 -1.00899,18.56509 10.65401,6.49555 21.74166,-6.81689 13.4276,-16.12194 -1.88326,-2.10773 -3.10403,-2.65447 -6.48039,-2.90219 -2.28801,-0.16788 -4.96023,0.0387 -5.93822,0.45904 z m -47.97333,-1.83196 c 0.26488,1.27353 1.41615,7.71134 2.55837,14.30622 2.69167,15.54116 3.38718,18.01918 6.99072,24.90703 5.56911,10.64486 15.41275,19.13377 27.15136,23.4147 4.66586,1.70159 7.0253,1.99595 15.99809,1.99595 9.01661,0 11.30948,-0.28888 15.99812,-2.01558 12.04171,-4.43463 21.48234,-12.55985 27.12568,-23.34625 3.6887,-7.05037 4.27583,-9.19101 7.38914,-26.94148 1.35016,-7.69791 2.60744,-14.1488 2.79389,-14.33527 0.67423,-0.67423 15.54073,5.01814 25.42067,9.73355 34.9132,16.66306 63.21507,44.10372 79.96749,77.53415 2.43668,4.86259 4.69564,9.69359 5.01993,10.73556 l 0.58959,1.89452 H 200.08641 c -110.595401,0 -164.247763,-0.27927 -164.247763,-0.85496 0,-1.78592 10.138332,-20.93823 14.9247,-28.19422 17.188911,-26.05786 41.381157,-47.11204 69.921813,-60.85194 7.96665,-3.83528 23.62592,-10.10849 25.59977,-10.25545 0.31053,-0.0232 0.78132,0.99993 1.04618,2.27347 z m 17.30834,130.93181 c 2.45195,6.59921 5.1604,13.79835 6.01879,15.99809 0.85837,2.19975 1.46774,3.99952 1.35417,3.99952 -0.11361,0 -7.39821,-7.19913 -16.18803,-15.9981 l -15.98147,-15.9981 h 10.16923 10.1692 z m 51.82687,-10.52507 c -0.32101,0.81043 -4.02462,10.66189 -8.23027,21.89215 -4.20566,11.23022 -7.89853,20.4186 -8.2064,20.4186 -0.30786,0 -4.00073,-9.18838 -8.20638,-20.4186 -4.20566,-11.23026 -7.90927,-21.08172 -8.23026,-21.89215 -0.54421,-1.37399 0.56587,-1.47352 16.43664,-1.47352 15.8708,0 16.98087,0.0996 16.43667,1.47352 z m 43.3457,-1.25469 c 0,0.12034 -7.22067,7.41421 -16.04597,16.20859 -15.72581,15.67076 -16.01362,15.90579 -14.42511,11.77976 0.89147,-2.3155 3.62699,-9.60938 6.07892,-16.20859 l 4.45812,-11.99859 h 9.96701 c 5.4819,0 9.96703,0.0986 9.96703,0.21883 z m -54.78225,120.04248 c 3.16228,1.69594 5.94598,6.10019 5.94598,9.40749 0,3.30731 -2.7837,7.71157 -5.94598,9.40751 -3.62936,1.94645 -6.37085,1.94645 -10.00023,0 -3.16226,-1.69594 -5.94595,-6.1002 -5.94595,-9.40751 0,-5.20259 5.74347,-10.94607 10.94606,-10.94607 1.17221,0 3.42227,0.69236 5.00012,1.53858 z"
       id="path8597" /></g></svg>
