<?xml version="1.0" encoding="UTF-8" standalone="no"?>
<svg
   viewBox="0 0 533.33331 533.33331"
   height="533.33331"
   width="533.33331"
   xml:space="preserve"
   id="svg2"
   version="1.1"
   sodipodi:docname="globe4.svg"
   inkscape:version="1.2.2 (732a01da63, 2022-12-09)"
   xmlns:inkscape="http://www.inkscape.org/namespaces/inkscape"
   xmlns:sodipodi="http://sodipodi.sourceforge.net/DTD/sodipodi-0.dtd"
   xmlns="http://www.w3.org/2000/svg"
   xmlns:svg="http://www.w3.org/2000/svg"
   xmlns:rdf="http://www.w3.org/1999/02/22-rdf-syntax-ns#"
   xmlns:cc="http://creativecommons.org/ns#"
   xmlns:dc="http://purl.org/dc/elements/1.1/"><sodipodi:namedview
     id="namedview140"
     pagecolor="#ffffff"
     bordercolor="#000000"
     borderopacity="0.25"
     inkscape:showpageshadow="2"
     inkscape:pageopacity="0.0"
     inkscape:pagecheckerboard="0"
     inkscape:deskcolor="#d1d1d1"
     showgrid="false"
     inkscape:zoom="1.0991092"
     inkscape:cx="22.290779"
     inkscape:cy="258.39107"
     inkscape:window-width="1920"
     inkscape:window-height="1009"
     inkscape:window-x="-8"
     inkscape:window-y="-8"
     inkscape:window-maximized="1"
     inkscape:current-layer="g10" /><metadata
     id="metadata8"><rdf:RDF><cc:Work
         rdf:about=""><dc:format>image/svg+xml</dc:format><dc:type
           rdf:resource="http://purl.org/dc/dcmitype/StillImage" /></cc:Work></rdf:RDF></metadata><defs
     id="defs6" /><g
     transform="matrix(1.3333333,0,0,-1.3333333,0,533.33333)"
     id="g10"><path
       id="rect1082"
       style="fill:#1a1a1a;stroke-width:1.127"
       d="M 200.3407,398.44882 C 90.553341,398.44882 1.5511846,309.44667 1.5511846,199.65931 1.5511846,89.869292 90.553341,0.86978873 200.3407,0.86978873 c 109.79,0 198.78952,88.99950327 198.78952,198.78952127 0,109.78736 -88.99952,198.78951 -198.78952,198.78951 z m 0,-20.39728 c 17.34105,0 34.10967,-2.4972 49.97305,-7.1343 0.24386,-0.72094 0.3363,-1.49839 0.17859,-2.36643 -0.14726,-0.8119 -0.51175,-1.60634 -1.04441,-2.3781 -0.53268,-0.77178 -1.23373,-1.52188 -2.05778,-2.24221 -4.94439,-4.32199 -14.28834,-7.61651 -17.87748,-8.66016 -12.51444,-3.56628 -26.81299,-2.58541 -41.9011,-8.59415 -5.10988,-2.05151 -8.68949,-3.95223 -11.22073,-6.40242 -0.84375,-0.81674 -1.57133,-1.69522 -2.1995,-2.65959 -2.51271,-3.8575 -3.44292,-9.10333 -3.92531,-17.39021 -1.06551,-18.31908 3.03797,-31.91903 23.28398,-27.32968 9.88515,3.20848 18.07772,7.95395 21.68243,15.22566 1.97465,3.98904 0.44558,11.15747 4.46111,14.35401 2.27416,1.81959 12.37252,2.13796 14.66657,1.17449 3.28201,-1.37961 3.50051,-3.09488 4.63971,-5.23764 0.37973,-0.71425 0.86159,-1.47608 1.5938,-2.2888 5.35241,-5.94282 10.53481,-5.66215 13.45906,-10.25009 0.48738,-0.76465 0.91154,-1.6663 1.26379,-2.75276 0.35226,-1.08646 0.63309,-2.35806 0.83088,-3.86904 1.21262,-9.26886 -3.43882,-24.29547 -8.07194,-32.05092 -0.82181,-1.37445 -1.74122,-2.59769 -2.73529,-3.70206 -0.9941,-1.10438 -2.06328,-2.09007 -3.18956,-2.98961 -6.75772,-5.39719 -15.53508,-7.69463 -22.00469,-13.93661 -9.40936,-9.07938 -5.30805,-18.3175 -8.57084,-29.77573 -3.74388,-13.14394 -16.32707,-8.43187 -22.09593,-17.31642 -2.63645,-4.0611 -1.44885,-9.35396 -2.65183,-13.80462 -0.24059,-0.89013 -0.57838,-1.74669 -1.05995,-2.55281 -0.96312,-1.61227 -2.50628,-3.02487 -5.02992,-4.10198 -5.22153,-2.2271 -11.13416,-2.65304 -16.30502,-1.27543 -1.2927,0.34439 -2.53999,0.80249 -3.71758,1.37249 -1.1776,0.57001 -2.28641,1.25235 -3.30411,2.04807 -2.03538,1.5915 -3.7067,3.63357 -4.83383,6.12871 -2.51536,5.57007 -4.09774,12.28264 -7.23332,17.88718 -4.22226,7.53809 -7.38571,8.93351 -16.31664,12.78736 -9.66249,4.16 -24.82362,5.00087 -28.5993,-11.04407 -0.39227,-1.70447 -0.661565,-3.46778 -0.813403,-5.25706 -0.455495,-5.36784 0.147678,-10.96295 1.669523,-15.85269 0.50729,-1.6299 1.11663,-3.18147 1.82289,-4.6203 2.11875,-4.31649 5.1101,-7.61745 8.83294,-8.97271 9.33647,-3.40062 23.16536,7.45822 25.10687,-5.53464 3.04943,-17.73202 -32.97351,-32.93353 -17.32614,-45.49834 10.2297,-8.21399 24.12463,-9.50882 39.8608,-12.53307 0.11532,0.0423 0.23669,0.0625 0.35333,0.10103 4.11891,-0.74745 8.59972,-1.34793 13.33092,-1.73358 13.58659,0.383 21.82103,3.68252 25.4602,7.41577 1.99452,0.0821 4.02322,-0.009 6.11316,-0.38631 12.42831,-2.23572 19.78594,-8.52689 24.41771,-19.486804 5.48793,-12.990228 10.38169,-18.30619 25.28162,-19.838188 3.90521,-0.400893 8.82426,-0.882217 13.79296,-1.754945 2.48435,-0.436358 4.98048,-0.970287 7.36919,-1.642346 5.97181,-1.680133 11.26836,-4.219453 14.00651,-8.231117 0.54764,-0.802338 0.99411,-1.662735 1.32201,-2.587762 0.32791,-0.925027 0.53734,-1.914604 0.61541,-2.972139 0.078,-1.057535 0.0234,-2.183838 -0.1786,-3.383693 -0.20191,-1.199852 -0.54988,-2.472386 -1.06191,-3.824368 -0.512,-1.351982 -1.18806,-2.784125 -2.0403,-4.298047 -0.45987,-0.816892 -0.97659,-1.591464 -1.52393,-2.343154 -22.43138,-12.490561 -47.81919,-20.290631 -74.82755,-22.045447 -3.85834,-0.250687 -7.75049,-0.378554 -11.67112,-0.378554 -10.63788,0 -21.05931,0.941555 -31.19093,2.735298 -4.38663,4.688644 -7.36913,10.936352 -9.69098,17.708574 -1.76791,5.165474 -0.70283,11.361199 -2.27328,16.561263 -2.00379,6.635062 -9.16782,10.282177 -12.49423,15.842978 -3.89892,6.517634 -3.59315,13.641404 -0.70275,19.859541 -4.14939,0.159033 -8.28065,0.353661 -12.24186,0.366917 -13.81055,-0.728897 -24.34941,3.178884 -33.172995,8.714503 -7.136543,4.48072 -8.634024,9.20144 -19.5237,10.90042 -3.007686,0.46849 -5.114775,0.85915 -6.879973,1.65398 -0.882611,0.39742 -1.680646,0.89573 -2.461584,1.555 -0.780937,0.65927 -1.543985,1.47848 -2.362561,2.5198 -2.558816,3.25353 -1.515783,3.90625 -5.264817,7.75746 -3.221977,3.30918 -6.110118,4.52622 -8.636861,9.0096 -1.891679,3.35819 -2.364618,7.94335 -4.016558,12.07685 -4.166226,10.74389 -11.481262,15.32343 -18.129837,22.05709 -3.227676,2.17607 -5.794778,4.31938 -7.937991,6.61207 -0.927684,7.36051 -1.409388,14.85849 -1.409388,22.46284 0,3.07391 0.07855,6.12869 0.232958,9.1649 4.786977,94.12237 82.866317,169.22733 178.157337,169.22733 z m 121.57417,-47.96962 c 19.13412,-17.84995 34.35474,-39.84229 44.20542,-64.54253 -0.98235,-0.59952 -1.92691,-0.96374 -2.83236,-1.17061 -0.90546,-0.20685 -1.77319,-0.25599 -2.59941,-0.21936 -4.13109,0.18315 -7.25607,2.47863 -9.22896,-2.43827 -0.39458,-0.9834 -0.74325,-2.25551 -1.04442,-3.89039 -1.01631,-5.52303 -0.2161,-9.43626 -2.11602,-11.74294 -0.37998,-0.46134 -0.86651,-0.85916 -1.49869,-1.19195 -1.26435,-0.66563 -3.10541,-1.07322 -5.81226,-1.22498 -8.16229,-0.45721 -16.61708,2.37587 -21.05539,9.42893 -1.82356,2.89834 -2.92106,6.9281 -5.04545,10.03847 -1.44188,2.10982 -2.42188,4.16296 -3.75642,6.50337 -5.36199,9.40141 -5.04336,12.23654 0.80371,20.99521 4.1971,6.29101 9.08454,12.97833 10.19378,20.43027 0.164,1.09633 0.16253,2.51056 0.0874,4.09615 -0.2255,4.75679 -1.12687,11.05522 -0.30089,14.92863 z m 53.76441,-97.51752 c 1.99717,-10.66835 3.05367,-21.66556 3.05367,-32.90509 0,-4.01804 -0.13305,-8.00589 -0.39604,-11.95844 -0.26299,-3.95254 -0.65503,-7.87009 -1.17255,-11.74877 -0.51752,-3.87869 -1.16022,-7.71938 -1.92383,-11.51581 -0.76359,-3.79643 -1.64864,-7.54987 -2.64987,-11.25568 -4.00496,-14.82321 -9.87638,-28.88648 -17.34556,-41.9244 -7.62688,-2.37222 -10.86312,4.10572 -14.47046,9.82687 -8.04701,12.7583 -20.19812,21.46471 -18.64624,38.67855 1.86199,20.60518 16.58176,33.20785 32.41201,45.00137 8.72686,6.50439 10.12055,9.92059 13.24552,19.86535 1.03237,3.28798 4.32706,7.03223 7.89335,7.93605 z" /></g></svg>
