<?xml version="1.0" encoding="UTF-8" standalone="no"?>
<!-- Svg Vector Icons : http://www.onlinewebfonts.com/icon -->

<svg
   version="1.1"
   x="0px"
   y="0px"
   viewBox="0 0 1000 1000"
   enable-background="new 0 0 1000 1000"
   xml:space="preserve"
   id="svg1890"
   sodipodi:docname="home2.svg"
   inkscape:version="1.2.2 (732a01da63, 2022-12-09)"
   xmlns:inkscape="http://www.inkscape.org/namespaces/inkscape"
   xmlns:sodipodi="http://sodipodi.sourceforge.net/DTD/sodipodi-0.dtd"
   xmlns="http://www.w3.org/2000/svg"
   xmlns:svg="http://www.w3.org/2000/svg"><defs
   id="defs1894" /><sodipodi:namedview
   id="namedview1892"
   pagecolor="#ffffff"
   bordercolor="#000000"
   borderopacity="0.25"
   inkscape:showpageshadow="2"
   inkscape:pageopacity="0.0"
   inkscape:pagecheckerboard="0"
   inkscape:deskcolor="#d1d1d1"
   showgrid="false"
   inkscape:zoom="0.829"
   inkscape:cx="500"
   inkscape:cy="500.60314"
   inkscape:window-width="1920"
   inkscape:window-height="1009"
   inkscape:window-x="-8"
   inkscape:window-y="-8"
   inkscape:window-maximized="1"
   inkscape:current-layer="svg1890" />
<metadata
   id="metadata1884"> Svg Vector Icons : http://www.onlinewebfonts.com/icon </metadata>
<g
   id="g1888"
   style="fill:#1a1a1a"><path
     d="M958,406.6L570.2,45.2c-19.6-22.3-47.9-35.1-77.9-35.2c-29.6,0-57.8,12.7-76.6,33.8L42.3,406.4c-18.6,19-24,46.8-13.7,71.3c10.3,24.6,34.2,40,60.9,40h33.6v368.7c0,57.2,45.7,103.6,102.9,103.6h160.3c20.8,0,39.3-16.8,39.3-37.6V707.2c0-10.4,6.9-19.8,17.3-19.8h113.2c10.4,0,18.4,9.3,18.4,19.8v245.2c0,20.8,17.4,37.6,38.2,37.6h160.3c57.2,0,104-46.4,104-103.6V517.7h33.5c26.6,0,50.4-15.4,60.8-39.8C981.7,453.4,976.4,425.7,958,406.6L958,406.6z"
     id="path1886"
     style="fill:#1a1a1a" /></g>
</svg>
