<?xml version="1.0" encoding="UTF-8" standalone="no"?>
<svg
   viewBox="0 0 533.33331 533.33331"
   height="533.33331"
   width="533.33331"
   xml:space="preserve"
   id="svg2"
   version="1.1"
   sodipodi:docname="obs7.svg"
   inkscape:version="1.2.2 (732a01da63, 2022-12-09)"
   xmlns:inkscape="http://www.inkscape.org/namespaces/inkscape"
   xmlns:sodipodi="http://sodipodi.sourceforge.net/DTD/sodipodi-0.dtd"
   xmlns="http://www.w3.org/2000/svg"
   xmlns:svg="http://www.w3.org/2000/svg"
   xmlns:rdf="http://www.w3.org/1999/02/22-rdf-syntax-ns#"
   xmlns:cc="http://creativecommons.org/ns#"
   xmlns:dc="http://purl.org/dc/elements/1.1/"><sodipodi:namedview
     id="namedview140"
     pagecolor="#ffffff"
     bordercolor="#000000"
     borderopacity="0.25"
     inkscape:showpageshadow="2"
     inkscape:pageopacity="0.0"
     inkscape:pagecheckerboard="0"
     inkscape:deskcolor="#d1d1d1"
     showgrid="false"
     inkscape:zoom="1.4248202"
     inkscape:cx="237.57384"
     inkscape:cy="261.08557"
     inkscape:window-width="1920"
     inkscape:window-height="1009"
     inkscape:window-x="-8"
     inkscape:window-y="-8"
     inkscape:window-maximized="1"
     inkscape:current-layer="g10" /><metadata
     id="metadata8"><rdf:RDF><cc:Work
         rdf:about=""><dc:format>image/svg+xml</dc:format><dc:type
           rdf:resource="http://purl.org/dc/dcmitype/StillImage" /></cc:Work></rdf:RDF></metadata><defs
     id="defs6"><inkscape:perspective
       sodipodi:type="inkscape:persp3d"
       inkscape:vp_x="0 : 266.66665 : 1"
       inkscape:vp_y="0 : 1000 : 0"
       inkscape:vp_z="533.33331 : 266.66665 : 1"
       inkscape:persp3d-origin="266.66665 : 177.77777 : 1"
       id="perspective5670" /></defs><g
     transform="matrix(1.3333333,0,0,-1.3333333,0,533.33333)"
     id="g10"><path
       style="fill:#000000;stroke-width:0.863927"
       d="m 93.556855,3.8415244 c -4.846929,3.812595 -6.103214,9.5221946 -3.157961,14.3525516 3.032626,4.973688 5.031356,5.441487 23.249466,5.441487 h 16.38886 l 0.48127,2.375801 c 1.50085,7.409263 10.02316,58.142852 10.02316,59.668288 0,1.411389 -0.82424,2.039936 -3.67172,2.800053 -11.92867,3.184246 -35.16039,13.907425 -48.994581,22.614735 -16.177648,10.18225 -34.671826,26.38848 -47.144425,41.31203 -13.191614,15.7839 -27.477366,40.89702 -34.0460284,59.85004 -2.9483021,8.50692 -3.2705034,12.41183 -1.3332397,16.15808 2.7101126,5.24078 1.8262877,5.15527 53.2933501,5.15527 h 46.914324 l 41.24916,41.25589 41.24914,41.25587 v 9.63876 9.63877 l -3.95732,1.91571 c -5.39879,2.61351 -11.78888,9.22412 -14.75094,15.25999 -2.22726,4.53844 -2.45794,5.86002 -2.45794,14.0798 0,8.21982 0.23068,9.54135 2.45794,14.07981 3.13633,6.39103 9.46851,12.72318 15.8595,15.85954 4.53847,2.22723 5.86003,2.45791 14.07981,2.45791 8.2198,0 9.54137,-0.23068 14.07982,-2.45791 6.39101,-3.13636 12.72317,-9.46851 15.85953,-15.85954 2.22722,-4.53846 2.45792,-5.85999 2.45792,-14.07981 0,-8.21978 -0.2307,-9.54136 -2.45792,-14.0798 -2.96207,-6.03587 -9.35218,-12.64648 -14.75098,-15.25999 l -3.95729,-1.91571 v -9.64547 -9.64552 l 41.25584,-41.24915 41.25587,-41.24915 h 46.9076 c 51.4597,0 50.57656,0.0854 53.28665,-5.15527 1.93726,-3.74625 1.61506,-7.65116 -1.33324,-16.15808 -6.56957,-18.95557 -20.8587,-44.07365 -34.04744,-59.85004 -13.22846,-15.8239 -33.09379,-32.98041 -49.8311,-43.03618 -13.7365,-8.25287 -32.85393,-16.948554 -45.06675,-20.498922 -3.93511,-1.143968 -4.91146,-1.784005 -4.91146,-3.219713 0,-1.505568 8.53777,-52.307416 10.02316,-59.640291 l 0.48126,-2.375801 h 16.38888 c 18.21808,0 20.21683,-0.467799 23.24946,-5.441487 2.94524,-4.830357 1.68897,-10.5399566 -3.15798,-14.3525516 L 302.72693,2.037384 H 199.28868 95.850438 Z M 188.05763,52.374619 c 0,32.157144 0.1437,33.009908 6.10076,36.204715 3.72386,1.997131 6.53673,1.997131 10.26059,0 5.95706,-3.194807 6.10078,-4.047571 6.10078,-36.204715 V 23.635563 h 17.71048 c 9.7408,0 17.71051,0.229235 17.71051,0.509416 0,0.280172 -4.29938,25.452851 -9.55415,55.939287 -6.97713,40.479024 -10.08826,56.605604 -11.53439,59.788924 -2.886,6.35289 -6.81478,10.35293 -13.30832,13.5497 -4.94478,2.43431 -6.64156,2.82551 -12.25521,2.82551 -11.36437,0 -20.89917,-6.10771 -25.56354,-16.37521 -1.44609,-3.18332 -4.55722,-19.3099 -11.53438,-59.788924 -5.25475,-30.486436 -9.55415,-55.659115 -9.55415,-55.939287 0,-0.280181 7.96974,-0.509416 17.71052,-0.509416 h 17.7105 z m 6.38281,61.045201 c -7.39623,3.17878 -8.02703,14.78564 -1.03526,19.04843 10.93139,6.66467 22.30772,-6.99437 13.77719,-16.54168 -1.93228,-2.1626 -3.18484,-2.72358 -6.6491,-2.97774 -2.34758,-0.17226 -5.08937,0.0397 -6.09283,0.47099 z m -49.22234,-1.87966 c 0.27178,1.30669 1.45303,7.9121 2.62498,14.67869 2.76175,15.94578 3.47537,18.48832 7.17273,25.5555 5.71411,10.92199 15.81403,19.63192 27.85826,24.0243 4.78733,1.7459 7.2082,2.04792 16.41461,2.04792 9.25136,0 11.60392,-0.2964 16.41464,-2.06805 12.35522,-4.55009 22.04163,-12.88686 27.8319,-23.95408 3.78474,-7.23393 4.38716,-9.43031 7.58152,-27.64292 1.38532,-7.89833 2.67533,-14.51717 2.86663,-14.70849 0.69178,-0.69179 15.94534,5.14879 26.08251,9.98697 35.82219,17.09689 64.86091,45.25197 82.04948,79.55278 2.50013,4.98919 4.81789,9.94597 5.15063,11.01506 l 0.60494,1.94385 H 199.34692 c -113.474811,0 -168.524037,-0.28654 -168.524037,-0.87722 0,-1.83242 10.402288,-21.48336 15.313272,-28.92827 17.636432,-26.73628 42.458534,-48.33862 71.742255,-62.43625 8.17407,-3.93513 24.24104,-10.37167 26.26628,-10.52245 0.31861,-0.0238 0.80166,1.02596 1.07341,2.33266 z m 17.75897,134.34068 c 2.5158,6.77102 5.29476,14.1576 6.1755,16.41461 0.88071,2.25702 1.50595,4.10365 1.38942,4.10365 -0.11657,0 -7.59083,-7.38656 -16.60949,-16.41462 l -16.39755,-16.41462 h 10.43399 10.43395 z m 53.17621,-10.79909 c -0.32936,0.83152 -4.1294,10.93947 -8.44455,22.46212 -4.31515,11.5226 -8.10417,20.9502 -8.42005,20.9502 -0.31588,0 -4.1049,-9.4276 -8.42004,-20.9502 -4.31516,-11.52265 -8.11519,-21.6306 -8.44454,-22.46212 -0.55838,-1.40977 0.5806,-1.51189 16.86458,-1.51189 16.284,0 17.42298,0.10219 16.8646,1.51189 z m 44.47422,-1.28736 c 0,0.12347 -7.40866,7.60724 -16.46372,16.63059 -16.13525,16.07875 -16.43055,16.3199 -14.80068,12.08645 0.91468,-2.37578 3.72142,-9.85957 6.23718,-16.63059 l 4.5742,-12.31098 h 10.2265 c 5.62462,0 10.22652,0.10117 10.22652,0.22453 z m -56.20852,123.16784 c 3.24461,1.7401 6.10078,6.25901 6.10078,9.65242 0,3.39342 -2.85617,7.91234 -6.10078,9.65244 -3.72386,1.99712 -6.53673,1.99712 -10.26059,0 -3.2446,-1.7401 -6.10076,-6.25902 -6.10076,-9.65244 0,-5.33805 5.89301,-11.23106 11.23105,-11.23106 1.20272,0 3.51136,0.71039 5.1303,1.57864 z"
       id="path8597" /></g></svg>
