{
    "asset" : {
        "generator" : "Khronos glTF Blender I/O v3.4.50",
        "version" : "2.0"
    },
    "extensionsUsed" : [
        "KHR_materials_specular"
    ],
    "scene" : 0,
    "scenes" : [
        {
            "name" : "Scene",
            "nodes" : [
                4
            ]
        }
    ],
    "nodes" : [
        {
            "mesh" : 0,
            "name" : "Object_23"
        },
        {
            "children" : [
                0
            ],
            "name" : "JWST-2016-with-instruments_2"
        },
        {
            "children" : [
                1
            ],
            "name" : "GLTF_SceneRootNode",
            "rotation" : [
                0.70710688829422,
                0,
                0,
                0.7071066498756409
            ]
        },
        {
            "children" : [
                2
            ],
            "name" : "root"
        },
        {
            "children" : [
                3
            ],
            "name" : "Sketchfab_model",
            "rotation" : [
                -0.70710688829422,
                0,
                0,
                0.7071066498756409
            ]
        }
    ],
    "materials" : [
        {
            "doubleSided" : true,
            "extensions" : {
                "KHR_materials_specular" : {
                    "specularColorFactor" : [
                        1.9999999999999998,
                        1.9999999999999998,
                        1.9999999999999998
                    ]
                }
            },
            "name" : "JWST-TopReflector",
            "pbrMetallicRoughness" : {
                "baseColorFactor" : [
                    1,
                    0.7704489231109619,
                    0.04043727368116379,
                    1
                ],
                "metallicFactor" : 0,
                "roughnessFactor" : 0
            }
        }
    ],
    "meshes" : [
        {
            "name" : "Object_19",
            "primitives" : [
                {
                    "attributes" : {
                        "POSITION" : 0,
                        "TEXCOORD_0" : 1,
                        "NORMAL" : 2
                    },
                    "indices" : 3,
                    "material" : 0
                }
            ]
        }
    ],
    "accessors" : [
        {
            "bufferView" : 0,
            "componentType" : 5126,
            "count" : 6530,
            "max" : [
                2.872096300125122,
                8.071318626403809,
                5.041546821594238
            ],
            "min" : [
                -2.8979263305664062,
                0.25628337264060974,
                -1.0724254846572876
            ],
            "type" : "VEC3"
        },
        {
            "bufferView" : 1,
            "componentType" : 5126,
            "count" : 6530,
            "type" : "VEC2"
        },
        {
            "bufferView" : 2,
            "componentType" : 5126,
            "count" : 6530,
            "type" : "VEC3"
        },
        {
            "bufferView" : 3,
            "componentType" : 5123,
            "count" : 11859,
            "type" : "SCALAR"
        }
    ],
    "bufferViews" : [
        {
            "buffer" : 0,
            "byteLength" : 78360,
            "byteOffset" : 0,
            "target" : 34962
        },
        {
            "buffer" : 0,
            "byteLength" : 52240,
            "byteOffset" : 78360,
            "target" : 34962
        },
        {
            "buffer" : 0,
            "byteLength" : 78360,
            "byteOffset" : 130600,
            "target" : 34962
        },
        {
            "buffer" : 0,
            "byteLength" : 23718,
            "byteOffset" : 208960,
            "target" : 34963
        }
    ],
    "buffers" : [
        {
            "byteLength" : 232680,
            "uri" : "data:application/octet-stream;base64,"
        }
    ]
}
